# xmcd
#
# Track frame offsets:
#   150
#   603
#   14291
#   25410
#   43210
#   56100
#   72393
#   85415
#   100312
#   112673
#   125676
#   141716
#   150953
#   164545
#   181288
#   194284
#   194656
#   212505
#   223439
#   237234
#   246627
#   259699
#   276213
#   291128
#   305521
#   345659
#
# Disc length: 4621 seconds
#
# Revision: 0
# Processed by: cddbd v1.5.1PL2 Copyright (c) Steve Scherf et al.
# Submitted via: uFREEDB ActiveX Control 1.5
#
DISCID=96120b1a
DTITLE=Brega - O melhor do Brega
DYEAR=2005
DGENRE=Country
TTITLE0=Brega - 01
TTITLE1=Brega - 02
TTITLE2=Brega - 03
TTITLE3=Brega - 04
TTITLE4=Brega - 05
TTITLE5=Brega - 06
TTITLE6=Brega - 07
TTITLE7=Brega - 08
TTITLE8=Brega - 09
TTITLE9=Brega - 10
TTITLE10=Brega - 11
TTITLE11=Brega - 12
TTITLE12=Brega - 13
TTITLE13=Brega - 14
TTITLE14=Brega - 15
TTITLE15=Brega - 16
TTITLE16=Brega - 17
TTITLE17=Brega - 18
TTITLE18=Brega - 19
TTITLE19=Brega - 20
TTITLE20=Brega - 21
TTITLE21=Brega - 22
TTITLE22=Brega - 23
TTITLE23=Brega - 24
TTITLE24=Brega - 25
TTITLE25=Brega - 26
EXTD=
EXTT0=
EXTT1=
EXTT2=
EXTT3=
EXTT4=
EXTT5=
EXTT6=
EXTT7=
EXTT8=
EXTT9=
EXTT10=
EXTT11=
EXTT12=
EXTT13=
EXTT14=
EXTT15=
EXTT16=
EXTT17=
EXTT18=
EXTT19=
EXTT20=
EXTT21=
EXTT22=
EXTT23=
EXTT24=
EXTT25=
PLAYORDER=
